<svg xmlns="http://www.w3.org/2000/svg" viewBox="0 0 64 64" role="img" aria-label="AFT Fathom logo">
  <defs>
    <linearGradient id="aftBg" x1="0%" y1="0%" x2="100%" y2="100%">
      <stop offset="0%" stop-color="#0ba5e9"/>
      <stop offset="100%" stop-color="#155e75"/>
    </linearGradient>
  </defs>
  <rect width="64" height="64" rx="12" fill="url(#aftBg)"/>
  <path d="M10 40c10-6 18-6 26 0s16 6 18-6c-6 6-12 2-18-2s-14-7-26 0c0 4 0 8 0 8z" fill="#e0f2fe" opacity="0.95"/>
  <path d="M10 34c9-4 17-3 24 2s15 4 20-4c0 0-1 10-6 14s-12 3-18-1-12-5-20-3v-8z" fill="#fff" opacity="0.9"/>
</svg>
