<svg xmlns="http://www.w3.org/2000/svg" viewBox="0 0 64 64" role="img" aria-label="RocketPy logo">
  <defs>
    <linearGradient id="rpBg" x1="0%" y1="0%" x2="100%" y2="100%">
      <stop offset="0%" stop-color="#0f3460"/>
      <stop offset="100%" stop-color="#1a1a2e"/>
    </linearGradient>
  </defs>
  <rect width="64" height="64" rx="12" fill="url(#rpBg)"/>
  <path d="M32 10c5 6 7 13 7 22 0 5-1 10-3 15l-4-2-4 2c-2-5-3-10-3-15 0-9 2-16 7-22z" fill="#fff" opacity="0.9"/>
  <path d="M32 26c2 2 3 4 3 7 0 2-.5 4-1.5 6h-3c-1-2-1.5-4-1.5-6 0-3 1-5 3-7z" fill="#0f3460"/>
  <circle cx="32" cy="50" r="6" fill="#f5a524" opacity="0.9"/>
</svg>
